0
SECTION
2
HEADER
9
$INSUNITS
70
4
9
$ACADVER
1
AC1014
9
$HANDSEED
5
FFFF
0
ENDSEC
0
SECTION
2
TABLES
0
TABLE
2
VPORT
5
8
100
AcDbSymbolTable
0
ENDTAB
0
TABLE
2
LTYPE
5
5
100
AcDbSymbolTable
0
LTYPE
5
14
100
AcDbSymbolTableRecord
100
AcDbLinetypeTableRecord
2
BYBLOCK
70
0
0
LTYPE
5
15
100
AcDbSymbolTableRecord
100
AcDbLinetypeTableRecord
2
BYLAYER
70
0
0
ENDTAB
0
TABLE
2
LAYER
5
2
100
AcDbSymbolTable
70
2
0
LAYER
5
50
100
AcDbSymbolTableRecord
100
AcDbLayerTableRecord
2
0
70
0
6
CONTINUOUS
0
ENDTAB
0
TABLE
2
STYLE
5
3
100
AcDbSymbolTable
70
1
0
STYLE
5
11
100
AcDbSymbolTableRecord
100
AcDbTextStyleTableRecord
2
STANDARD
70
0
0
ENDTAB
0
TABLE
2
VIEW
5
6
100
AcDbSymbolTable
70
0
0
ENDTAB
0
TABLE
2
UCS
5
7
100
AcDbSymbolTable
70
0
0
ENDTAB
0
TABLE
2
APPID
5
9
100
AcDbSymbolTable
70
2
0
APPID
5
12
100
AcDbSymbolTableRecord
100
AcDbRegAppTableRecord
2
ACAD
70
0
0
ENDTAB
0
TABLE
2
DIMSTYLE
5
A
100
AcDbSymbolTable
70
1
0
ENDTAB
0
TABLE
2
BLOCK_RECORD
5
1
100
AcDbSymbolTable
70
1
0
BLOCK_RECORD
5
1F
100
AcDbSymbolTableRecord
100
AcDbBlockTableRecord
2
*MODEL_SPACE
0
BLOCK_RECORD
5
1B
100
AcDbSymbolTableRecord
100
AcDbBlockTableRecord
2
*PAPER_SPACE
0
ENDTAB
0
ENDSEC
0
SECTION
2
BLOCKS
0
BLOCK
5
20
100
AcDbEntity
100
AcDbBlockBegin
2
*MODEL_SPACE
0
ENDBLK
5
21
100
AcDbEntity
100
AcDbBlockEnd
0
BLOCK
5
1C
100
AcDbEntity
100
AcDbBlockBegin
2
*PAPER_SPACE
0
ENDBLK
5
1D
100
AcDbEntity
100
AcDbBlockEnd
0
ENDSEC
0
SECTION
2
ENTITIES
0
LWPOLYLINE
5
100
100
AcDbEntity
8
0
100
AcDbPolyline
90
8
70
1
43
0.0
10
-70.062856608198103
20
34.071568431343749
10
-72.515821299131687
20
33.356713427141429
10
-71.200826701091572
20
28.844420306440458
10
-68.747862010146633
20
29.559275310664628
42
0.40089186287101336
10
-64.437192677435675
20
30.815511715247013
10
-61.984227986468312
20
31.530366719458573
10
-63.299222584508428
20
36.042659840159544
10
-65.752187275475478
20
35.327804835946857
42
0.40089186287101342
0
LWPOLYLINE
5
101
100
AcDbEntity
8
0
100
AcDbPolyline
90
8
70
1
43
0.0
10
-44.350141823046386
20
40.947621969098719
10
-46.835642884149429
20
40.355728458961515
42
0.40089186287323769
10
-51.203489368098559
20
39.315576021507979
10
-53.68899042918919
20
38.723682511392028
10
-52.600186736353621
20
34.15153788130128
10
-50.114685675250577
20
34.743431391438484
42
0.40089186287323769
10
-45.746839191301447
20
35.78358382889202
10
-43.261338130210817
20
36.375477339007972
0
LWPOLYLINE
5
102
100
AcDbEntity
8
0
100
AcDbPolyline
90
8
70
1
43
0.0
10
-27.558075159732532
20
44.371723564518192
42
0.40089186286878836
10
-31.981317422916639
20
43.600407882586971
10
-34.498341173475815
20
43.161494575315508
10
-33.690948590826444
20
38.531363128209193
10
-31.17392484028818
20
38.97027643549567
42
0.40089186287323803
10
-26.750682577048771
20
39.741592117418485
10
-24.233658826524191
20
40.180505424684505
10
-25.041051409173562
20
44.810636871790813
0
CIRCLE
5
103
100
AcDbEntity
8
0
100
AcDbCircle
10
78.058159396299999
20
49.221502311000009
30
0
40
1.0249999999999999
210
0
220
0
230
1
0
CIRCLE
5
104
100
AcDbEntity
8
0
100
AcDbCircle
10
77.033159396300007
20
-50.4375383454
30
0
40
1.0249999999999999
210
0
220
0
230
1
0
CIRCLE
5
105
100
AcDbEntity
8
0
100
AcDbCircle
10
-74.494084539699998
20
49.221502311000009
30
0
40
1.0249999999999999
210
0
220
0
230
1
0
LWPOLYLINE
5
106
100
AcDbEntity
8
0
100
AcDbPolyline
90
4
70
1
43
0.0
10
-79.386549600199999
20
53.585753546900001
10
-79.386549600199999
20
-55.755884066199997
10
82.347956035900012
20
-55.755884066199997
10
82.347956035900012
20
53.585753546900001
0
CIRCLE
5
107
100
AcDbEntity
8
0
100
AcDbCircle
10
-74.494084539699998
20
-51.507005498599995
30
0
40
1.0249999999999999
210
0
220
0
230
1
0
LWPOLYLINE
5
108
100
AcDbEntity
8
0
100
AcDbPolyline
90
8
70
1
43
0.0
10
1.6522132762768256
20
-29.220575035610132
10
1.8091392164741791
20
-33.917954544367454
10
4.3627202376611383
20
-33.832646746290756
42
0.40089186287101347
10
8.8502057025711913
20
-33.682732762464809
10
11.403786723723176
20
-33.59742496438988
10
11.24686078352582
20
-28.900045455632551
10
8.693279762357438
20
-28.985353253725844
42
0.40089186287101336
10
4.205794297463826
20
-29.135267237534617
0
LWPOLYLINE
5
109
100
AcDbEntity
8
0
100
AcDbPolyline
90
8
70
1
43
0.0
10
24.214153702076917
20
-34.12373859167387
42
0.40089186286878942
10
28.685643597099663
20
-34.53089718328232
10
31.230122419757464
20
-34.76258873087292
10
31.656325120580988
20
-30.081952955915554
10
29.11184629792308
20
-29.85026140832613
42
0.40089186286878881
10
24.640356402900338
20
-29.44310281671768
10
22.09587758024254
20
-29.211411269127083
10
21.669674879419016
20
-33.89204704408445
0
LWPOLYLINE
5
110
100
AcDbEntity
8
0
100
AcDbPolyline
90
8
70
1
43
0.0
10
69.270663408777551
20
-41.374466841262027
42
0.40089186286878892
10
65.197919197257619
20
-39.484293677887294
10
62.880344599169213
20
-38.408700151282417
10
60.901761993133583
20
-42.67193963213419
10
63.219336591213384
20
-43.747533158714802
42
0.40089186287323769
10
67.292080802773924
20
-45.637706322128004
10
69.609655400830817
20
-46.713299848717604
10
71.588238006866447
20
-42.450060367865838
0
LWPOLYLINE
5
111
100
AcDbEntity
8
0
100
AcDbPolyline
90
8
70
1
43
0.0
10
42.795651632687637
20
-32.094963528869428
10
41.605326728644194
20
-36.641734539467379
10
44.077034228248991
20
-37.288816828271713
42
0.40089186287323814
10
48.420640867728508
20
-38.425954182313347
10
50.892348367312351
20
-39.073036471130592
10
52.082673271355802
20
-34.526265460532628
10
49.61096577175099
20
-33.8791831717283
42
0.40089186287101319
10
45.267359132305209
20
-32.742045817696102
0
LWPOLYLINE
5
112
100
AcDbEntity
8
0
100
AcDbPolyline
90
24
70
1
43
0.0
10
-49.826472462864658
20
-20.093524580458158
42
0.28491504644104598
10
-49.888007809989986
20
-20.295162487357064
10
-48.916658003857975
20
-23.962477912285657
42
0.28491504644105392
10
-48.763378516217166
20
-24.107218518578335
42
-1.39195995969897
10
-49.001483766227061
20
-24.516901244825192
42
0.28491504644104337
10
-49.203121673125708
20
-24.455365897699938
10
-50.816232095182066
20
-24.88262516345117
42
0.17210747316647826
10
-51.368148538401108
20
-25.260046762253864
42
-0.35472216532456335
10
-55.327613358143388
20
-26.308777220222638
42
0.17210747316647981
10
-55.993993782539675
20
-26.254041916159277
10
-57.60710420459597
20
-26.681301181910733
42
0.28491504644104654
10
-57.751844810888649
20
-26.834580669551535
42
-1.3919599597000132
10
-58.161527537135072
20
-26.596475419541608
42
0.28491504644057081
10
-58.099992190010084
20
-26.394837512642951
10
-59.071341996142024
20
-22.727522087714341
42
0.28491504644057647
10
-59.224621483782485
20
-22.58278148142173
42
-1.3919599597000138
10
-58.986516233772917
20
-22.173098755174792
42
0.28491504644104071
10
-58.784878326874249
20
-22.234634102300227
10
-57.171767904817933
20
-21.807374836548824
42
0.17210747316647826
10
-56.619851461598891
20
-21.429953237746133
42
-0.35472216532456335
10
-52.66038664185659
20
-20.381222779777318
42
0.17210747316647843
10
-51.994006217460338
20
-20.435958083840681
10
-50.38089579540403
20
-20.008698818089261
42
0.28491504644104654
10
-50.236155189111358
20
-19.855419330448463
42
-1.3919599596989884
0
LWPOLYLINE
5
113
100
AcDbEntity
8
0
100
AcDbPolyline
90
8
70
1
43
0.0
10
-14.414970513669662
20
22.136041125444258
10
-11.884099830532849
20
22.486393858041836
10
-12.528582904815162
20
27.141997102194377
10
-15.059453587966381
20
26.791644369576836
42
0.40089186287323764
10
-19.507029486330335
20
26.175958874555739
10
-22.03790016946715
20
25.825606141958161
10
-21.393417095184834
20
21.170002897805624
10
-18.86254641203362
20
21.520355630423165
42
0.40089186287323775
0
LWPOLYLINE
5
114
100
AcDbEntity
8
0
100
AcDbPolyline
90
8
70
1
43
0.0
10
31.633393670702517
20
42.326407973035913
10
34.184813949444013
20
42.191100865954823
10
34.433714934737679
20
46.884505632168782
10
31.882294655961179
20
47.01981273925113
42
0.40089186286878931
10
27.39860632933242
20
47.25759202696166
10
24.847186050555983
20
47.392899134045187
10
24.598285065262324
20
42.699494367831228
10
27.149705344038821
20
42.564187260748895
42
0.40089186287101425
0
LWPOLYLINE
5
115
100
AcDbEntity
8
0
100
AcDbPolyline
90
8
70
1
43
0.0
10
-34.836690642192998
20
23.52227239575134
42
0.40089186286878881
10
-39.210692377955418
20
22.508315387018534
10
-41.699696054180919
20
21.931328253786862
10
-40.638313034032237
20
17.352740471015842
10
-38.149309357828443
20
17.929727604261355
42
0.40089186287101286
10
-33.775307622044586
20
18.943684612981464
10
-31.286303945819085
20
19.520671746213132
10
-32.34768696596776
20
24.099259528984156
0
LWPOLYLINE
5
116
100
AcDbEntity
8
0
100
AcDbPolyline
90
8
70
1
43
0.0
10
-63.871998397520599
20
11.09975228940916
10
-61.410768853187612
20
11.785611299840111
42
0.40089186287101275
10
-57.085575442666119
20
12.99089216410132
10
-54.624345898310835
20
13.676751174519401
10
-55.886001602479389
20
18.204247710590849
10
-58.347231146812383
20
17.518388700159896
42
0.40089186287323786
10
-62.672424557367776
20
16.313107835889852
10
-65.13365410168916
20
15.627248825480605
0
LWPOLYLINE
5
117
100
AcDbEntity
8
0
100
AcDbPolyline
90
8
70
1
43
0.0
10
-12.228609102381348
20
46.404864051312828
10
-14.773005033207433
20
46.172263967057326
10
-14.345131055265629
20
41.491780673742383
10
-11.800735124424232
20
41.724380758017155
42
0.40089186287323758
10
-7.3293908976186497
20
42.133135948687169
10
-4.7849949667925653
20
42.365736032942671
10
-5.2128689447343692
20
47.046219326257614
10
-7.7572648755757658
20
46.813619241982842
42
0.40089186287323769
0
LWPOLYLINE
5
118
100
AcDbEntity
8
0
100
AcDbPolyline
90
8
70
1
43
0.0
10
5.1107612990989528
20
23.797499490911957
10
7.6623337018417264
20
23.929906913519115
10
7.4187667624690175
20
28.623591515837916
10
4.8671943597101865
20
28.491184093212102
42
0.40089186287323797
10
0.38323870090104739
20
28.258500509088048
10
-2.1683337018417257
20
28.126093086480889
10
-1.9247667624690186
20
23.432408484162089
10
0.626805640289812
20
23.564815906787903
42
0.40089186287323803
0
LWPOLYLINE
5
119
100
AcDbEntity
8
0
100
AcDbPolyline
90
8
70
1
43
0.0
10
7.5918685767764806
20
42.937390843061607
42
0.40089186286878897
10
12.079816792121081
20
43.072745253393585
10
14.633661139134064
20
43.149767999441565
10
14.491975770236467
20
47.847631902987558
10
11.938131423242041
20
47.770609156921743
42
0.40089186287101342
10
7.4501832078789212
20
47.635254746606407
10
4.8963388608659377
20
47.558232000558434
10
5.0380242297635363
20
42.86036809701244
0
LWPOLYLINE
5
120
100
AcDbEntity
8
0
100
AcDbPolyline
90
8
70
1
43
0.0
10
23.475316999337082
20
9.0661222948079327
10
23.11494412481472
20
4.3799584701739196
10
25.662428095920198
20
4.1840532146559166
42
0.4008918628710138
10
30.139199029592394
20
3.8397829607079763
10
32.686683000662917
20
3.6438777051920681
10
33.047055875185279
20
8.330041529826083
10
30.499571904096442
20
8.5259467853255479
42
0.40089186287323797
10
26.022800970407609
20
8.8702170392920259
0
LWPOLYLINE
5
121
100
AcDbEntity
8
0
100
AcDbPolyline
90
8
70
1
43
0.0
10
-28.576899392720655
20
0.47425995253408959
10
-26.079950811679492
20
1.0158328798822991
10
-27.07618846787712
20
5.609035524266047
10
-29.57313704893113
20
5.0674625968968385
42
0.40089186287101325
10
-33.961100607245001
20
4.115740047472757
10
-36.458049188320516
20
3.5741671201177012
10
-35.461811532122887
20
-1.0190355242660467
10
-32.964862951068881
20
-0.47746259689683962
42
0.40089186287323775
0
LWPOLYLINE
5
122
100
AcDbEntity
8
0
100
AcDbPolyline
90
8
70
1
43
0.0
10
13.060201317883905
20
4.6898221840008523
10
12.980415338817403
20
9.389144922177536
10
10.425777942739742
20
9.3457718113773591
42
0.40089186287101342
10
5.9364360781587528
20
9.2695509267981393
10
3.3817986821160941
20
9.2261778159991472
10
3.4615846611825973
20
4.5268550778224634
10
6.0162220572602561
20
4.570228188622643
42
0.40089186286878903
10
10.505563921806223
20
4.6464490732018522
0
LWPOLYLINE
5
123
100
AcDbEntity
8
0
100
AcDbPolyline
90
8
70
1
43
0.0
10
24.738689561753588
20
23.535150552925547
10
27.292141500138246
20
23.446062672943935
10
27.456021000509637
20
28.143204730552796
10
24.902569062089963
20
28.23229261053504
42
0.40089186287101375
10
20.415310438246408
20
28.388849447074453
10
17.861858499861746
20
28.477937327056068
10
17.69797899949036
20
23.780795269447204
10
20.251430937910033
20
23.691707389464959
42
0.40089186287101375
0
LWPOLYLINE
5
124
100
AcDbEntity
8
0
100
AcDbPolyline
90
8
70
1
43
0.0
10
45.039705937765092
20
26.098428356008935
42
0.40089186286878864
10
40.595457687417692
20
26.737691595445586
10
38.066480585572911
20
27.10146112485085
10
37.397316960389958
20
22.449341173395169
10
39.926294062219526
20
22.08557164401067
42
0.4008918628710133
10
44.370542312582316
20
21.446308404554415
10
46.899519414427104
20
21.082538875149154
10
47.56868303961005
20
25.734658826604836
0
LWPOLYLINE
5
125
100
AcDbEntity
8
0
100
AcDbPolyline
90
8
70
1
43
0.0
10
-13.649818819520501
20
2.9543951703844966
42
0.40089186286878903
10
-9.1937290849614932
20
3.5050895298697924
10
-6.6580136461164496
20
3.8184593838472307
10
-7.2344657416346045
20
8.4829746835941116
10
-9.7701811804595131
20
8.1696048296006332
42
0.40089186287101347
10
-14.22627091503851
20
7.6189104701302046
10
-16.76198635388355
20
7.3055406161527703
10
-16.185534258365394
20
2.6410253164058894
0
LWPOLYLINE
5
126
100
AcDbEntity
8
0
100
AcDbPolyline
90
8
70
1
43
0.0
10
-55.576197805945455
20
-1.4336291171082434
42
0.40089186286878942
10
-59.901405235625845
20
-2.638859671918671
10
-62.36264275752545
20
-3.324690053990274
10
-61.101039715953831
20
-7.8522012649644957
10
-58.639802194076523
20
-7.1663708828800177
42
0.40089186287323747
10
-54.314594764340278
20
-5.9611403280724984
10
-51.853357242474573
20
-5.2753099460097266
10
-53.114960284046184
20
-0.74779873503550365
0
LWPOLYLINE
5
127
100
AcDbEntity
8
0
100
AcDbPolyline
90
8
70
1
43
0.0
10
64.382501738006212
20
-2.8934587799996523
42
0.40089186286878881
10
68.68479993253159
20
-4.1780716576381804
10
71.133001069453201
20
-4.909074151036565
10
72.47769939891576
20
-0.40554371339760142
10
70.029498262006143
20
0.32545877997801037
42
0.40089186287323764
10
65.727200067435049
20
1.6100716576487628
10
63.27899893054682
20
2.3410741510365654
10
61.93430060108426
20
-2.1624562866023989
0
LWPOLYLINE
5
128
100
AcDbEntity
8
0
100
AcDbPolyline
90
8
70
1
43
0.0
10
-0.80884337197127398
20
-14.937954599291674
10
1.7436388562369334
20
-14.824429594256864
42
0.40089186287323797
10
6.2291933789336573
20
-14.624928655907482
10
8.7816756071256687
20
-14.511403650891207
10
8.572843371971274
20
-9.8160454007083295
10
6.0203611437630675
20
-9.9295704057431387
42
0.40089186287323791
10
1.5348066210663429
20
-10.129071344092523
10
-1.0176756071256687
20
-10.242596349108798
0
LWPOLYLINE
5
129
100
AcDbEntity
8
0
100
AcDbPolyline
90
8
70
1
43
0.0
10
45.682408743844753
20
-17.835718091992099
10
48.187776559918134
20
-18.336902247950448
10
49.109718007951962
20
-13.728212199097378
10
46.604350191844127
20
-13.227028043132742
42
0.40089186286878903
10
42.201591256189481
20
-12.346281908015349
10
39.696223440081873
20
-11.845097752049556
10
38.774281992048046
20
-16.453787800902624
10
41.279649808155881
20
-16.954971956867258
42
0.40089186287101358
0
LWPOLYLINE
5
130
100
AcDbEntity
8
0
100
AcDbPolyline
90
8
70
1
43
0.0
10
62.199619185992113
20
-17.565303970702733
10
59.794458920839318
20
-16.703180110152431
10
58.208559384848556
20
-21.12753573122815
10
60.61371965002337
20
-21.989659591767431
42
0.40089186287101347
10
64.840380813775113
20
-23.504696029284897
10
67.24554107896067
20
-24.366819889847569
10
68.831440614951418
20
-19.94246426877185
10
66.426280349776619
20
-19.080340408232569
42
0.40089186287323764
0
LWPOLYLINE
5
131
100
AcDbEntity
8
0
100
AcDbPolyline
90
8
70
1
43
0.0
10
25.961028257317516
20
-14.992309054448061
10
28.510993494483607
20
-15.152717100519613
10
28.806068317806183
20
-10.461988921586073
10
26.256103080622005
20
-10.30158087553122
42
0.4008918628710133
10
21.774971742717405
20
-10.019690945554725
10
19.225006505516404
20
-9.8592828994803856
10
18.929931682193828
20
-14.550011078413924
10
21.4798969193949
20
-14.710419124487082
42
0.40089186287101358
0
LWPOLYLINE
5
132
100
AcDbEntity
8
0
100
AcDbPolyline
90
8
70
1
43
0.0
10
-18.295701252722626
20
-17.060322931154094
10
-19.18947908508472
20
-12.446088304872273
10
-21.697861034426861
20
-12.931962206613711
42
0.40089186286878931
10
-26.105916797935006
20
-13.785803167105628
10
-28.61429874727737
20
-14.271677068845907
10
-27.720520914915276
20
-18.885911695127724
10
-25.212138965573136
20
-18.400037793386289
42
0.40089186286878881
10
-20.804083202064998
20
-17.546196832894374
0
LWPOLYLINE
5
133
100
AcDbEntity
8
0
100
AcDbPolyline
90
8
70
1
43
0.0
10
45.180567455557949
20
1.8191045826123071
42
0.40089186286878914
10
49.603363014647982
20
1.0452315681554281
10
52.120132570490192
20
0.60486302367848965
10
52.930202100284475
20
5.2345268729119176
10
50.41343254444206
20
5.6748954173876953
42
0.4008918628710133
10
45.990636985317636
20
6.4487684318511871
10
43.473867429509809
20
6.8891369763215105
10
42.663797899715526
20
2.259473127088083
0
LWPOLYLINE
5
134
100
AcDbEntity
8
0
100
AcDbPolyline
90
8
70
1
43
0.0
10
-51.443149560330042
20
-44.755863323977934
10
-48.973310615329517
20
-44.101685184814997
10
-50.176688522874706
20
-39.558351429560801
10
-52.646527467887118
20
-40.212529568745303
42
0.40089186287101319
10
-56.986850439635973
20
-41.362136676013677
10
-59.456689384670504
20
-42.016314815185012
10
-58.253311477125315
20
-46.559648570439208
10
-55.783472532091089
20
-45.905470431266728
42
0.40089186287101319
0
ENDSEC
0
SECTION
2
OBJECTS
0
DICTIONARY
5
C
100
AcDbDictionary
3
ACAD_GROUP
350
D
3
ACAD_MLINESTYLE
350
17
0
DICTIONARY
5
D
100
AcDbDictionary
0
DICTIONARY
5
1A
330
C
100
AcDbDictionary
0
DICTIONARY
5
17
100
AcDbDictionary
0
ENDSEC
0
EOF
